<?xml version="1.0" encoding="UTF-8"?>
<svg id="Layer_1" data-name="Layer 1" xmlns="http://www.w3.org/2000/svg" viewBox="0 0 720 240">
  <defs>
    <style>
      .cls-1 {
        fill: #11100d;
        stroke-width: 0px;
      }
    </style>
  </defs>
  <g>
    <g>
      <path class="cls-1" d="m400.25,106.46c-1.65-5.28-4.15-9.92-7.48-13.92-3.33-4-7.33-7.12-11.99-9.37-4.67-2.25-9.79-3.37-15.37-3.37-5.09,0-9.88,1.01-14.37,3.04-4.49,2.02-8.43,4.82-11.81,8.4-3.38,3.58-6.03,7.73-7.96,12.44-1.92,4.72-2.89,9.79-2.89,15.22,0,7.16,1.67,13.69,5,19.59,3.33,5.9,7.8,10.6,13.4,14.11,5.61,3.5,11.82,5.25,18.63,5.25,7.41,0,14.09-2.08,20.07-6.25,5.97-4.17,10.44-9.54,13.4-16.11l-12.66-2.96c-2.22,4-5.14,7.14-8.74,9.44-3.6,2.3-7.63,3.44-12.07,3.44-4.15-.05-7.91-1.03-11.29-2.96-3.39-1.92-6.16-4.53-8.34-7.81-2.17-3.28-3.55-7.02-4.14-11.22h60.43c.44-6.02-.16-11.68-1.82-16.96Zm-58.98,7.18c.54-4.24,1.93-8.08,4.18-11.51,2.25-3.43,5.1-6.16,8.55-8.18,3.46-2.03,7.26-3.04,11.41-3.04s7.97,1.04,11.48,3.11c3.5,2.07,6.39,4.83,8.66,8.26,2.27,3.43,3.61,7.22,4,11.36h-48.28Z"/>
      <path class="cls-1" d="m472.19,81.88l.45,12.66c-2.72-4.35-6.27-7.89-10.67-10.63-4.39-2.74-9.5-4.11-15.33-4.11-5.33,0-10.31,1-14.95,3-4.65,2-8.73,4.77-12.26,8.29-3.53,3.54-6.28,7.64-8.26,12.33-1.97,4.7-2.96,9.68-2.96,14.96s1.01,10.59,3.04,15.33c2.02,4.74,4.85,8.93,8.48,12.55,3.62,3.63,7.81,6.47,12.55,8.52,4.74,2.05,9.82,3.07,15.25,3.07s10.48-1.33,14.55-3.99c4.08-2.67,7.27-6.15,9.59-10.45l.52,12.52h12.44v-74.05h-12.44Zm-3.88,50.57c-1.96,4.1-4.72,7.35-8.3,9.74-3.58,2.4-7.81,3.59-12.7,3.59s-9.11-1.19-13.11-3.59c-4-2.39-7.21-5.63-9.62-9.7-2.42-4.07-3.63-8.6-3.63-13.59s1.17-9.51,3.52-13.59c2.34-4.07,5.51-7.32,9.51-9.74,4-2.41,8.44-3.62,13.33-3.62s9.05,1.19,12.63,3.59c3.58,2.39,6.35,5.63,8.33,9.7,1.97,4.07,2.96,8.63,2.96,13.66s-.98,9.46-2.92,13.55Z"/>
      <path class="cls-1" d="m537.58,117.87c-3.9-1.88-8.09-3.53-12.59-4.97-3.06-.98-5.88-1.86-8.48-2.63-2.59-.76-4.69-1.78-6.29-3.07-1.61-1.28-2.41-3.16-2.41-5.63s.76-4.63,2.26-6.33c1.51-1.7,3.51-2.97,6-3.81,2.49-.84,5.17-1.21,8.03-1.11,2.32.05,4.6.47,6.82,1.26,2.22.79,4.19,1.86,5.92,3.22,1.73,1.36,3.01,2.92,3.85,4.7l10-5.85c-2.42-4.39-6.1-7.87-11.03-10.44-4.94-2.57-10.4-3.85-16.37-3.85-4.74,0-9.18.91-13.33,2.74-4.15,1.82-7.49,4.42-10.03,7.77-2.55,3.36-3.82,7.33-3.82,11.93,0,4.34,1.15,7.91,3.45,10.7,2.29,2.79,5.44,5.08,9.44,6.88,4,1.81,8.54,3.35,13.62,4.63,2.57.74,5.1,1.52,7.59,2.33,2.5.82,4.57,1.93,6.22,3.34,1.66,1.4,2.49,3.34,2.49,5.81,0,2.32-.76,4.31-2.26,5.96-1.51,1.66-3.45,2.9-5.82,3.74-2.37.84-4.91,1.26-7.62,1.26-2.57,0-5.11-.44-7.63-1.33-2.52-.89-4.74-2.08-6.67-3.56-1.92-1.48-3.25-3.06-4-4.74l-10.66,4.59c1.28,3.07,3.35,5.77,6.18,8.11,2.84,2.35,6.15,4.2,9.93,5.56,3.77,1.35,7.66,2.11,11.66,2.26,4.94.19,9.57-.6,13.89-2.37,4.32-1.78,7.83-4.36,10.55-7.74,2.71-3.38,4.07-7.35,4.07-11.89.05-4.15-1.12-7.63-3.52-10.44-2.39-2.81-5.54-5.16-9.44-7.03Z"/>
      <path class="cls-1" d="m606.6,81.88l-20.88,56.94-19.18-56.94h-13.63l26.59,74.05-13.41,37.03h13.19l40.5-111.08h-13.18Z"/>
    </g>
    <path class="cls-1" d="m196.89,79.5c-21.51,0-38.95,17.44-38.95,38.96s17.44,38.95,38.95,38.95,38.95-17.44,38.95-38.95-17.44-38.96-38.95-38.96Zm0,77.15c-2.09-34.97,1.15-35.84-38.19-38.19,39.15-2.34,36.09-3.04,38.19-38.19,2.09,34.97-1.15,35.84,38.19,38.19-39.15,2.34-36.09,3.05-38.19,38.19Z"/>
    <path class="cls-1" d="m240.53,79.5c21.51,0,38.95,17.44,38.95,38.95s-17.44,38.95-38.95,38.95v-77.9Z"/>
    <path class="cls-1" d="m283.14,79.5c21.51,0,38.95,17.44,38.95,38.95s-17.44,38.95-38.95,38.95v-77.9Z"/>
  </g>
  <g>
    <polygon class="cls-1" points="605.29 147.67 607.84 147.67 607.84 154.62 609.15 154.62 609.15 147.67 611.69 147.67 611.69 146.37 605.29 146.37 605.29 147.67"/>
    <polygon class="cls-1" points="620.41 146.37 619.27 146.37 617.12 152.03 614.97 146.37 613.84 146.37 612.24 154.62 613.56 154.62 614.63 149.13 616.67 154.53 617.57 154.53 619.62 149.13 620.68 154.62 622.01 154.62 620.41 146.37"/>
  </g>
</svg>