<?xml version="1.0" encoding="UTF-8"?>
<svg id="Layer_1" data-name="Layer 1" xmlns="http://www.w3.org/2000/svg" viewBox="0 0 720 240">
  <defs>
    <style>
      .cls-1 {
        fill: #feffef;
        stroke-width: 0px;
      }
    </style>
  </defs>
  <g>
    <g>
      <path class="cls-1" d="m125.06,155.82c-6.37,0-8.74-3.85-8.74-9.33,0-7.11,4-17.03,8.59-24.73,14.37-23.55,29.32-41.47,47.69-41.62,6.96,0,9.63,3.26,9.63,8.29,0,14.51-22.36,43.69-31.4,51.54l-.15,1.63c0,3.26,2.22,5.48,5.92,5.48,6.52,0,18.07-6.66,31.69-25.33h1.04c-15.11,19.7-26.07,26.66-32.73,26.66-4.15,0-6.67-2.81-7.11-7.11-8.29,8.15-17.03,14.37-24.29,14.51h-.15Zm24.44-15.7v-.59c0-8.44,6.67-22.22,17.33-22.22l1.33.15c5.78-8.15,12.59-20.59,12.59-28.73,0-4.59-2.37-7.7-8.44-7.7h-.3c-8.15.3-23.25,18.81-36.88,40.58-5.18,8-13.63,21.92-13.63,28.88,0,2.67,1.19,4.29,4.15,4.29,6.81,0,15.55-6.37,23.84-14.66Zm18.07-21.62h-.44c-7.4,0-14.37,15.55-15.85,19.7,4.59-4.89,12.74-14.51,16.29-19.7Z"/>
      <path class="cls-1" d="m185.49,155.82c-6.37,0-8.89-3.85-8.89-9.33,0-7.11,4.15-17.03,8.74-24.73,14.37-23.84,29.32-41.47,47.69-41.62,6.22,0,8.59,3.11,8.59,7.85,0,2.81-.89,6.07-2.22,9.63,16.59-23.7,36.58-55.54,40.88-62.65h12s-48.87,69.16-62.05,86.79c-6.07,8.15-13.18,19.99-13.18,27.1,0,3.55,1.78,5.92,6.52,5.92,11.55,0,25.33-18.07,36.29-33.03h1.04c-9.33,12.14-24.88,33.92-37.62,33.92-8.15,0-11.7-3.85-11.7-9.92,0-3.41,1.18-7.41,3.11-11.7-8.74,10.22-21.77,21.62-29.03,21.77h-.15Zm31.1-25.33c1.48-2.81,3.26-5.63,5.48-8.44l15.25-21.33c1.78-4.29,3.26-8.89,3.26-12.44,0-4.29-2.07-7.26-8.15-7.26-8.44,1.33-23.25,18.81-37.03,40.58-5.04,8-13.63,21.92-13.63,28.88,0,2.81,1.19,4.29,4.29,4.29,7.41,0,22.22-13.92,30.51-24.29Z"/>
      <path class="cls-1" d="m254.8,155.82c-6.37,0-8.89-3.85-8.89-9.33,0-7.11,4.15-17.03,8.74-24.73,14.37-23.84,29.32-41.47,47.69-41.62,6.22,0,8.59,3.11,8.59,7.85,0,2.81-.89,6.07-2.22,9.63,16.59-23.7,36.58-55.54,40.88-62.65h12s-48.87,69.16-62.05,86.79c-6.07,8.15-13.18,19.99-13.18,27.1,0,3.55,1.78,5.92,6.52,5.92,11.55,0,25.33-18.07,36.29-33.03h1.04c-9.33,12.14-24.88,33.92-37.62,33.92-8.15,0-11.7-3.85-11.7-9.92,0-3.41,1.18-7.41,3.11-11.7-8.74,10.22-21.77,21.62-29.03,21.77h-.15Zm31.1-25.33c1.48-2.81,3.26-5.63,5.48-8.44l15.25-21.33c1.78-4.29,3.26-8.89,3.26-12.44,0-4.29-2.07-7.26-8.15-7.26-8.44,1.33-23.25,18.81-37.03,40.58-5.04,8-13.63,21.92-13.63,28.88,0,2.81,1.18,4.29,4.29,4.29,7.41,0,22.22-13.92,30.51-24.29Z"/>
    </g>
    <g>
      <path class="cls-1" d="m365.2,157.74c-6.81,0-13.02-1.75-18.62-5.26-5.6-3.5-10.07-8.21-13.4-14.11-3.33-5.9-5-12.43-5-19.59,0-5.43.96-10.5,2.89-15.22,1.93-4.71,4.58-8.86,7.96-12.44,3.38-3.58,7.32-6.38,11.81-8.41,4.49-2.02,9.28-3.04,14.37-3.04,5.58,0,10.7,1.12,15.37,3.37,4.67,2.25,8.67,5.37,12,9.37,3.33,4,5.83,8.64,7.48,13.92,1.65,5.28,2.26,10.94,1.81,16.96h-60.43c.59,4.2,1.97,7.94,4.15,11.22,2.17,3.28,4.95,5.89,8.33,7.81,3.38,1.93,7.15,2.91,11.29,2.96,4.44,0,8.47-1.15,12.07-3.44,3.6-2.3,6.52-5.44,8.74-9.44l12.66,2.96c-2.96,6.57-7.43,11.94-13.4,16.11-5.97,4.17-12.66,6.26-20.07,6.26Zm-24.14-44.21h48.28c-.4-4.15-1.73-7.94-4-11.37-2.27-3.43-5.16-6.18-8.66-8.26-3.51-2.07-7.33-3.11-11.48-3.11s-7.95,1.01-11.4,3.04c-3.46,2.02-6.31,4.75-8.55,8.18-2.25,3.43-3.64,7.27-4.18,11.52Z"/>
      <path class="cls-1" d="m471.98,81.76h12.44v74.05h-12.44l-.52-12.52c-2.32,4.3-5.52,7.78-9.59,10.44s-8.92,4-14.55,4-10.52-1.03-15.25-3.07c-4.74-2.05-8.92-4.89-12.55-8.52-3.63-3.63-6.46-7.81-8.48-12.55-2.03-4.74-3.04-9.85-3.04-15.33s.99-10.27,2.96-14.96c1.97-4.69,4.73-8.8,8.26-12.33,3.53-3.53,7.62-6.29,12.26-8.29s9.63-3,14.96-3c5.83,0,10.93,1.37,15.33,4.11,4.39,2.74,7.95,6.28,10.66,10.63l-.44-12.66Zm-24.88,63.91c4.89,0,9.12-1.2,12.7-3.59,3.58-2.39,6.34-5.64,8.29-9.74,1.95-4.1,2.92-8.61,2.92-13.55s-.99-9.59-2.96-13.66c-1.98-4.07-4.75-7.31-8.33-9.7-3.58-2.39-7.79-3.59-12.63-3.59s-9.33,1.21-13.33,3.63c-4,2.42-7.17,5.67-9.52,9.74-2.35,4.07-3.52,8.6-3.52,13.59s1.21,9.52,3.63,13.59c2.42,4.07,5.63,7.31,9.63,9.7,4,2.4,8.37,3.59,13.11,3.59Z"/>
      <path class="cls-1" d="m521.82,157.22c-4-.15-7.89-.9-11.66-2.26-3.78-1.36-7.08-3.21-9.92-5.55-2.84-2.34-4.9-5.05-6.18-8.11l10.66-4.59c.74,1.68,2.07,3.26,4,4.74,1.93,1.48,4.15,2.67,6.67,3.55s5.06,1.33,7.63,1.33c2.71,0,5.26-.42,7.63-1.26,2.37-.84,4.31-2.09,5.81-3.74,1.5-1.65,2.26-3.64,2.26-5.96,0-2.47-.83-4.41-2.48-5.81-1.65-1.41-3.73-2.52-6.22-3.33-2.49-.81-5.02-1.59-7.59-2.33-5.09-1.28-9.63-2.83-13.63-4.63-4-1.8-7.15-4.1-9.44-6.89-2.29-2.79-3.44-6.36-3.44-10.7,0-4.59,1.27-8.56,3.81-11.92,2.54-3.36,5.89-5.95,10.03-7.78,4.15-1.83,8.59-2.74,13.33-2.74,5.97,0,11.43,1.28,16.37,3.85,4.94,2.57,8.61,6.05,11.03,10.44l-10,5.85c-.84-1.78-2.12-3.34-3.85-4.7-1.73-1.36-3.7-2.43-5.92-3.22-2.22-.79-4.49-1.21-6.81-1.26-2.86-.1-5.54.27-8.03,1.11-2.49.84-4.49,2.11-6,3.81-1.51,1.7-2.26,3.81-2.26,6.33s.8,4.34,2.41,5.63c1.6,1.28,3.7,2.31,6.29,3.07,2.59.77,5.42,1.64,8.48,2.63,4.49,1.43,8.69,3.09,12.59,4.96,3.9,1.88,7.05,4.22,9.44,7.04s3.57,6.29,3.52,10.44c0,4.54-1.36,8.5-4.07,11.89-2.71,3.38-6.23,5.96-10.55,7.74-4.32,1.78-8.95,2.57-13.89,2.37Z"/>
      <path class="cls-1" d="m606.39,81.76h13.18l-40.51,111.08h-13.18l13.4-37.03-26.59-74.05h13.63l19.18,56.95,20.88-56.95Z"/>
    </g>
  </g>
  <g>
    <polygon class="cls-1" points="605.29 147.67 607.84 147.67 607.84 154.62 609.15 154.62 609.15 147.67 611.69 147.67 611.69 146.37 605.29 146.37 605.29 147.67"/>
    <polygon class="cls-1" points="620.41 146.37 619.27 146.37 617.12 152.03 614.97 146.37 613.84 146.37 612.24 154.62 613.56 154.62 614.63 149.13 616.67 154.53 617.57 154.53 619.62 149.13 620.68 154.62 622.01 154.62 620.41 146.37"/>
  </g>
</svg>