<?xml version="1.0" encoding="UTF-8"?>
<svg id="Layer_1" data-name="Layer 1" xmlns="http://www.w3.org/2000/svg" viewBox="0 0 720 240">
  <defs>
    <style>
      .cls-1 {
        fill: #11100d;
        stroke-width: 0px;
      }
    </style>
  </defs>
  <g>
    <g>
      <path class="cls-1" d="m365.41,157.85c-6.81,0-13.02-1.75-18.62-5.26-5.6-3.5-10.07-8.21-13.4-14.11-3.33-5.9-5-12.43-5-19.59,0-5.43.96-10.5,2.89-15.22,1.93-4.71,4.58-8.86,7.96-12.44,3.38-3.58,7.32-6.38,11.81-8.4,4.49-2.02,9.28-3.04,14.37-3.04,5.58,0,10.7,1.12,15.37,3.37,4.67,2.25,8.67,5.37,12,9.37,3.33,4,5.83,8.64,7.48,13.92,1.65,5.28,2.26,10.94,1.81,16.96h-60.43c.59,4.2,1.97,7.94,4.15,11.22,2.17,3.28,4.95,5.89,8.33,7.81,3.38,1.93,7.15,2.91,11.29,2.96,4.44,0,8.47-1.15,12.07-3.44,3.6-2.3,6.52-5.44,8.74-9.44l12.66,2.96c-2.96,6.57-7.43,11.94-13.4,16.11-5.97,4.17-12.66,6.26-20.07,6.26Zm-24.14-44.21h48.28c-.4-4.15-1.73-7.94-4-11.37-2.27-3.43-5.16-6.18-8.66-8.26-3.51-2.07-7.33-3.11-11.48-3.11s-7.95,1.01-11.4,3.04c-3.46,2.02-6.31,4.75-8.55,8.18-2.25,3.43-3.64,7.27-4.18,11.52Z"/>
      <path class="cls-1" d="m472.2,81.87h12.44v74.05h-12.44l-.52-12.52c-2.32,4.3-5.52,7.78-9.59,10.44s-8.92,4-14.55,4-10.52-1.03-15.25-3.07c-4.74-2.05-8.92-4.89-12.55-8.52-3.63-3.63-6.46-7.81-8.48-12.55-2.03-4.74-3.04-9.85-3.04-15.33s.99-10.27,2.96-14.96c1.97-4.69,4.73-8.8,8.26-12.33,3.53-3.53,7.62-6.29,12.26-8.29s9.63-3,14.96-3c5.83,0,10.93,1.37,15.33,4.11,4.39,2.74,7.95,6.28,10.66,10.63l-.44-12.66Zm-24.88,63.91c4.89,0,9.12-1.2,12.7-3.59,3.58-2.39,6.34-5.64,8.29-9.74,1.95-4.1,2.92-8.61,2.92-13.55s-.99-9.59-2.96-13.66c-1.98-4.07-4.75-7.31-8.33-9.7-3.58-2.39-7.79-3.59-12.63-3.59s-9.33,1.21-13.33,3.63c-4,2.42-7.17,5.67-9.52,9.74-2.35,4.07-3.52,8.6-3.52,13.59s1.21,9.52,3.63,13.59c2.42,4.07,5.63,7.31,9.63,9.7,4,2.4,8.37,3.59,13.11,3.59Z"/>
      <path class="cls-1" d="m522.03,157.33c-4-.15-7.89-.9-11.66-2.26-3.78-1.36-7.08-3.21-9.92-5.55-2.84-2.34-4.9-5.05-6.18-8.11l10.66-4.59c.74,1.68,2.07,3.26,4,4.74,1.93,1.48,4.15,2.67,6.67,3.55s5.06,1.33,7.63,1.33c2.71,0,5.26-.42,7.63-1.26,2.37-.84,4.31-2.08,5.81-3.74,1.5-1.65,2.26-3.64,2.26-5.96,0-2.47-.83-4.41-2.48-5.81-1.65-1.41-3.73-2.52-6.22-3.33-2.49-.81-5.02-1.59-7.59-2.33-5.09-1.28-9.63-2.83-13.63-4.63-4-1.8-7.15-4.1-9.44-6.89-2.29-2.79-3.44-6.36-3.44-10.7,0-4.59,1.27-8.56,3.81-11.92,2.54-3.36,5.89-5.95,10.03-7.78,4.15-1.83,8.59-2.74,13.33-2.74,5.97,0,11.43,1.28,16.37,3.85,4.94,2.57,8.61,6.05,11.03,10.44l-10,5.85c-.84-1.78-2.12-3.34-3.85-4.7-1.73-1.36-3.7-2.43-5.92-3.22-2.22-.79-4.49-1.21-6.81-1.26-2.86-.1-5.54.27-8.03,1.11-2.49.84-4.49,2.11-6,3.81s-2.26,3.81-2.26,6.33.8,4.34,2.41,5.63c1.6,1.28,3.7,2.31,6.29,3.07,2.59.77,5.42,1.64,8.48,2.63,4.49,1.43,8.69,3.09,12.59,4.96,3.9,1.88,7.05,4.22,9.44,7.04s3.57,6.29,3.52,10.44c0,4.54-1.36,8.5-4.07,11.89-2.71,3.38-6.23,5.96-10.55,7.74-4.32,1.78-8.95,2.57-13.89,2.37Z"/>
      <path class="cls-1" d="m606.6,81.87h13.18l-40.51,111.08h-13.18l13.4-37.03-26.59-74.05h13.63l19.18,56.95,20.88-56.95Z"/>
    </g>
    <path class="cls-1" d="m294.69,105.53v7.61h26.15v42.79h-31.81c-8.62,0-13-4.26-13-12.68v-14.59h18.65v14.91c0,4.32,3.32,4.44,3.7,4.44h3.91v-26.96h-26.26v-23.44h26.15v-7.61h-33.76v65.92h-18.65v-65.92h-7.61v65.92h-18.65v-36.68h-7.61v36.68h-32.87c-7.77,0-12.04-4.16-12.04-11.72v-18.95h18.65v17.67c0,2.98,1.97,4.55,3.91,4.55h3.7v-29.83h-26.26v-8.45h22.46c1.89,0,3.8-1.49,3.8-4.34v-14.33h-7.61v11.06h-18.65v-19.5h44.91v15.65c0,3.63-1.03,6.15-3.16,7.73l-7.21,5.33h17.98v-28.71h27.3l-9.43-24.36h17.82l9.53,24.36h52.11v23.44h-26.15Z"/>
  </g>
  <g>
    <polygon class="cls-1" points="605.29 147.67 607.84 147.67 607.84 154.62 609.15 154.62 609.15 147.67 611.69 147.67 611.69 146.37 605.29 146.37 605.29 147.67"/>
    <polygon class="cls-1" points="620.41 146.37 619.27 146.37 617.12 152.03 614.97 146.37 613.84 146.37 612.24 154.62 613.56 154.62 614.63 149.13 616.67 154.53 617.57 154.53 619.62 149.13 620.68 154.62 622.01 154.62 620.41 146.37"/>
  </g>
</svg>