<?xml version="1.0" encoding="UTF-8"?>
<svg id="Layer_2" data-name="Layer 2" xmlns="http://www.w3.org/2000/svg" viewBox="0 0 159.22 102.12">
  <defs>
    <style>
      .cls-1 {
        fill: #feffef;
        stroke-width: 0px;
      }
    </style>
  </defs>
  <g id="Layer_1-2" data-name="Layer 1">
    <g>
      <path class="cls-1" d="m56.17,99.9C24.56,93.64,1.3,75.11,0,53.03h28.73c.67,20.37,11.63,37.96,27.44,46.87Z"/>
      <path class="cls-1" d="m32.38,53.03h36.56c4.82,0,8.72,3.91,8.72,8.72v40.37c-24.57-1.12-44.35-22.54-45.28-49.09Z"/>
      <path class="cls-1" d="m28.73,49.09H0C1.31,27,24.58,8.47,56.17,2.2c-15.81,8.9-26.78,26.5-27.44,46.88Z"/>
      <path class="cls-1" d="m77.66,0v40.37c0,4.82-3.91,8.72-8.72,8.72h-36.56C33.32,22.53,53.09,1.1,77.66,0Z"/>
      <path class="cls-1" d="m81.56,102.12v-40.37c0-4.82,3.91-8.72,8.72-8.72h36.56c-.94,26.54-20.72,47.97-45.28,49.09Z"/>
      <path class="cls-1" d="m130.5,53.03h28.73c-1.31,22.08-24.56,40.61-56.17,46.87,15.81-8.9,26.77-26.5,27.44-46.87Z"/>
      <path class="cls-1" d="m126.85,49.09h-36.56c-4.82,0-8.72-3.91-8.72-8.72V0c24.56,1.1,44.34,22.53,45.28,49.09Z"/>
      <path class="cls-1" d="m103.05,2.2c31.59,6.26,54.86,24.79,56.17,46.88h-28.73c-.67-20.38-11.65-37.98-27.44-46.88Z"/>
    </g>
  </g>
</svg>