<?xml version="1.0" encoding="UTF-8"?>
<svg id="Layer_2" data-name="Layer 2" xmlns="http://www.w3.org/2000/svg" viewBox="0 0 88.03 97.73">
  <defs>
    <style>
      .cls-1 {
        fill: #feffef;
        stroke-width: 0px;
      }
    </style>
  </defs>
  <g id="Layer_1-2" data-name="Layer 1">
    <path class="cls-1" d="m33.06,86.49c0-11.23,9.27-18.53,9.27-34.82-14.04,8.14-15.73,19.94-25.27,25.55-6.74,3.65-12.64.56-15.45-3.93-2.81-4.77-2.25-11.23,4.21-14.88,9.83-5.9,20.5-2.25,34.82-9.55-14.04-8.14-24.99-3.65-34.82-9.27C-.64,35.66-1.2,28.92,1.6,24.43c2.81-4.77,8.71-7.58,14.88-3.93,10.11,5.62,12.07,16.57,25.84,25.55,0-16.29-9.27-23.59-9.27-34.82,0-7.58,5.62-11.23,10.95-11.23,5.62,0,10.95,3.65,10.95,10.95,0,11.51-8.43,18.82-9.27,35.1,14.04-8.14,15.73-19.94,25.56-25.55,6.46-3.65,12.64-.56,15.17,3.93,2.81,4.77,2.25,11.23-3.93,14.88-10.11,5.9-20.5,2.25-35.1,9.55,14.04,8.14,24.99,3.65,34.54,9.27,6.74,3.93,7.02,10.39,4.49,15.16-2.81,4.77-8.71,7.58-15.17,3.93-9.83-5.62-12.07-16.57-25.56-25.55.84,16.29,9.27,23.59,9.27,35.1,0,7.3-5.33,10.95-10.95,10.95s-10.95-3.65-10.95-11.23Z"/>
  </g>
</svg>