<?xml version="1.0" encoding="UTF-8"?>
<svg id="Layer_2" data-name="Layer 2" xmlns="http://www.w3.org/2000/svg" viewBox="0 0 101.93 101.93">
  <defs>
    <style>
      .cls-1 {
        fill: #11100d;
        stroke-width: 0px;
      }
    </style>
  </defs>
  <g id="Layer_1-2" data-name="Layer 1">
    <path class="cls-1" d="m0,50.96c0-5.09,11.05-8.65,25.54-10.52-2.26-2.94-4.26-5.77-5.96-8.45-3.85-6.06-7.78-13.94-4.65-17.07,3.59-3.59,13.92,1.7,25.51,10.63,1.88-14.51,5.44-25.55,10.52-25.55s8.65,11.05,10.53,25.55c11.58-8.93,21.92-14.22,25.51-10.63,3.12,3.13-.81,11.01-4.66,17.07-1.69,2.68-3.7,5.51-5.95,8.45,14.5,1.88,25.54,5.44,25.54,10.52s-11.05,8.65-25.54,10.53c8.92,11.58,14.21,21.91,10.62,25.51-.78.78-1.87,1.13-3.22,1.13-4.9,0-13.21-4.76-22.29-11.76-1.88,14.5-5.44,25.54-10.53,25.54s-8.65-11.05-10.52-25.54c-9.08,7-17.39,11.76-22.29,11.76-1.35,0-2.44-.36-3.22-1.13-3.6-3.6,1.69-13.93,10.62-25.51-14.51-1.88-25.55-5.44-25.55-10.53Zm100.15,0c0-3.36-9.59-6.97-25.03-8.9-2.29,2.9-4.82,5.89-7.53,8.9,2.66,2.97,5.2,5.96,7.51,8.89,15.45-1.92,25.04-5.54,25.04-8.9Zm-37.12,2.35c.73-.78,1.46-1.57,2.18-2.35-.71-.78-1.44-1.56-2.18-2.35,0,.78.01,1.57.01,2.35s0,1.57-.01,2.35Zm-.05,2.63c-.04,1.67-.09,3.33-.17,4.99,3.62-.19,7.04-.47,10.23-.83-2-2.5-4.22-5.12-6.64-7.82-1.11,1.22-2.25,2.44-3.42,3.66Zm0-9.96c1.16,1.21,2.29,2.43,3.42,3.66,2.37-2.65,4.6-5.27,6.65-7.82-3.19-.36-6.62-.64-10.24-.83.08,1.66.13,3.33.17,4.99Zm22.77,39.76c2.37-2.37-1.86-11.72-11.42-24-3.71.43-7.63.76-11.61.97-.22,3.99-.54,7.9-.98,11.61,12.29,9.56,21.63,13.79,24,11.42Zm-23.03-46.53c3.99.21,7.9.54,11.62.97,2.48-3.19,4.68-6.26,6.51-9.15,5.66-8.91,6.25-13.52,4.9-14.86-.44-.43-1.1-.64-1.98-.64-3.91,0-11.99,4.25-22.02,12.07.44,3.71.76,7.62.98,11.61Zm-21.94,4.89c.55-.56,1.1-1.12,1.65-1.67.55-.55,1.11-1.1,1.67-1.65-1.08.03-2.15.07-3.2.12-.05,1.05-.08,2.12-.12,3.2Zm.21-4.98c1.66-.07,3.33-.13,5-.17,1.21-1.15,2.43-2.29,3.65-3.42-2.69-2.42-5.32-4.64-7.82-6.64-.36,3.19-.64,6.61-.83,10.23Zm7.62-.21c.78-.01,1.57-.02,2.35-.02s1.57,0,2.36.02c-.79-.75-1.57-1.47-2.36-2.18-.78.71-1.56,1.43-2.35,2.18ZM50.96,1.78c-3.35,0-6.97,9.6-8.9,25.04,2.93,2.32,5.93,4.86,8.9,7.53,2.97-2.67,5.97-5.2,8.9-7.53-1.92-15.45-5.54-25.04-8.9-25.04Zm9.15,27.12c-2.51,2-5.13,4.22-7.83,6.64,1.23,1.12,2.45,2.26,3.66,3.42,1.67.04,3.34.1,5,.17-.2-3.62-.48-7.04-.83-10.23Zm.92,12c-1.05-.05-2.12-.09-3.2-.12.56.55,1.12,1.1,1.67,1.65.55.55,1.1,1.11,1.65,1.67-.03-1.08-.07-2.15-.12-3.2Zm.12,16.93c-.55.56-1.09,1.12-1.65,1.67-.55.55-1.11,1.1-1.67,1.65,1.08-.03,2.15-.07,3.2-.12.05-1.05.08-2.12.12-3.2Zm-.21,4.98c-1.66.07-3.33.13-5,.17-1.21,1.15-2.43,2.29-3.65,3.42,2.69,2.42,5.32,4.64,7.82,6.65.35-3.19.63-6.62.83-10.23Zm-7.62.21c-.78.01-1.57.02-2.36.02s-1.56,0-2.34-.02c.78.74,1.57,1.47,2.34,2.18.78-.71,1.57-1.43,2.36-2.18Zm-2.36,37.13c3.36,0,6.97-9.6,8.9-25.04-2.93-2.32-5.92-4.86-8.9-7.53-2.97,2.67-5.97,5.2-8.9,7.53,1.93,15.45,5.55,25.04,8.9,25.04Zm-9.14-27.12c2.51-2,5.13-4.22,7.82-6.64-1.23-1.12-2.45-2.26-3.65-3.42-1.67-.04-3.34-.1-5-.17.19,3.62.47,7.04.83,10.23Zm-.92-12c1.05.05,2.12.09,3.2.12-.56-.55-1.12-1.1-1.67-1.65-.55-.55-1.1-1.11-1.65-1.67.04,1.08.07,2.15.12,3.2Zm-.18-5.81c.97,1.01,1.96,2.02,2.97,3.03,1.02,1.02,2.03,2,3.03,2.97,1.4.02,2.8.04,4.24.04s2.85-.02,4.25-.04c1.01-.97,2.01-1.95,3.03-2.97,1.01-1.01,2-2.02,2.97-3.03.02-1.4.04-2.81.04-4.25s-.02-2.85-.04-4.25c-.96-1-1.95-2.01-2.97-3.03-1.01-1.02-2.02-2-3.03-2.97-1.4-.02-2.8-.04-4.25-.04s-2.85.02-4.25.04c-1,.97-2.01,1.95-3.03,2.97-1.01,1.02-2,2.03-2.97,3.03-.03,1.39-.04,2.8-.04,4.24s.01,2.85.04,4.25ZM18.16,15.54c-.88,0-1.55.21-1.98.64-1.34,1.34-.76,5.95,4.9,14.86,1.83,2.88,4.02,5.96,6.51,9.15,3.71-.43,7.63-.76,11.62-.97.21-3.99.54-7.9.97-11.61-10.04-7.81-18.11-12.07-22.02-12.07Zm20.74,33.08c-.74.79-1.47,1.57-2.18,2.35.72.78,1.44,1.57,2.18,2.35-.01-.78-.01-1.57-.01-2.35s0-1.57.01-2.35Zm-3.37,3.67c-2.42,2.69-4.64,5.32-6.64,7.82,3.19.36,6.62.64,10.23.83-.07-1.66-.13-3.32-.17-4.99-1.17-1.21-2.31-2.43-3.42-3.65Zm0-2.64c1.12-1.23,2.26-2.45,3.41-3.66.04-1.67.1-3.34.17-4.99-3.62.19-7.04.47-10.23.83,2.05,2.56,4.28,5.18,6.65,7.82Zm-19.35,36.1c.43.43,1.1.64,1.98.64,3.91,0,11.99-4.25,22.02-12.07-.43-3.71-.76-7.62-.97-11.61-3.99-.21-7.9-.54-11.61-.97-9.57,12.28-13.79,21.63-11.42,24Zm10.64-25.88c2.32-2.93,4.85-5.92,7.51-8.89-2.71-3.02-5.23-6-7.53-8.9-15.45,1.92-25.04,5.54-25.04,8.9s9.6,6.97,25.05,8.9Z"/>
  </g>
</svg>