<?xml version="1.0" encoding="UTF-8"?>
<svg id="Layer_2" data-name="Layer 2" xmlns="http://www.w3.org/2000/svg" viewBox="0 0 103.78 103.78">
  <defs>
    <style>
      .cls-1 {
        fill: #11100d;
        stroke-width: 0px;
      }
    </style>
  </defs>
  <g id="Layer_1-2" data-name="Layer 1">
    <g>
      <path class="cls-1" d="m103.58,51.25c-.52-.92-2.31-2.19-5.95-3.09-.8-9.88-4.71-18.86-10.76-25.98,1.8-2.99,2.34-5.2,2.02-6.38-.07-.3-.27-1-1.63-1s-3.31.66-5.69,2.1c-7.12-6.06-16.1-9.96-25.98-10.75-.59-2.43-1.34-4.09-2.07-5.03-.56-.71-1.14-1.11-1.63-1.11s-1.08.4-1.63,1.11c-.73.94-1.48,2.6-2.07,5.03-9.88.79-18.86,4.69-25.98,10.75-2.37-1.44-4.32-2.1-5.68-2.1s-1.57.7-1.64,1c-.33,1.18.22,3.4,2.02,6.4-6.04,7.11-9.96,16.1-10.75,25.97-4.16,1.03-6.15,2.55-6.15,3.74s2,2.71,6.15,3.74c.79,9.87,4.7,18.85,10.76,25.97-1.81,3-2.36,5.21-2.03,6.4.07.3.27.99,1.64.99s3.31-.65,5.68-2.09c7.12,6.04,16.12,9.95,25.98,10.75.59,2.42,1.34,4.09,2.07,5.02.56.73,1.14,1.12,1.63,1.12s1.08-.4,1.63-1.12c.73-.93,1.48-2.6,2.07-5.02,9.88-.8,18.86-4.7,25.98-10.75,2.38,1.44,4.32,2.09,5.69,2.09s1.56-.69,1.64-.99c.31-1.18-.23-3.4-2.03-6.4,6.04-7.12,9.96-16.1,10.76-25.97,3.64-.91,5.43-2.18,5.95-3.09.27-.45.27-.83,0-1.28Zm-51.69,35.13c-19.04,0-34.49-15.45-34.49-34.49s15.45-34.49,34.49-34.49,34.49,15.44,34.49,34.49-15.44,34.49-34.49,34.49Z"/>
      <circle class="cls-1" cx="51.89" cy="51.89" r="7.25"/>
    </g>
  </g>
</svg>