<?xml version="1.0" encoding="UTF-8"?>
<svg id="Layer_2" data-name="Layer 2" xmlns="http://www.w3.org/2000/svg" viewBox="0 0 101.93 101.93">
  <defs>
    <style>
      .cls-1 {
        fill: #11100d;
        stroke-width: 0px;
      }
    </style>
  </defs>
  <g id="Layer_1-2" data-name="Layer 1">
    <path class="cls-1" d="m2.33,47.27c1.04-.49,4.75-1.49,4.75-2.64h0c.86-1.37,1.19-3.01.92-4.6h0c.44-1.07-2.61-3.41-3.38-4.26-1.02-1.13-1.37-2.8-.74-4.3.62-1.51,2.04-2.44,3.57-2.52,1.15-.06,4.96.44,5.4-.62h0c1.32-.93,2.25-2.32,2.61-3.9h0c.81-.82-1.11-4.15-1.49-5.23-.51-1.44-.19-3.11.96-4.26,1.15-1.15,2.82-1.47,4.26-.96,1.09.39,4.42,2.31,5.23,1.49h0c1.58-.36,2.97-1.29,3.9-2.61h0c1.06-.44.56-4.25.62-5.4.08-1.53,1.01-2.95,2.52-3.57,1.51-.62,3.17-.28,4.3.74.86.77,3.2,3.82,4.26,3.38h0c1.59.27,3.23-.05,4.6-.92h0c1.15,0,2.15-3.71,2.64-4.75.66-1.38,2.06-2.33,3.69-2.33s3.04.95,3.69,2.33c.49,1.04,1.49,4.75,2.64,4.75h0c1.37.86,3.01,1.19,4.6.92h0c1.06.44,3.4-2.61,4.26-3.38,1.13-1.02,2.8-1.37,4.3-.74,1.51.62,2.44,2.04,2.52,3.57.06,1.15-.44,4.96.62,5.4h0c.93,1.32,2.32,2.25,3.9,2.61h0c.82.82,4.14-1.11,5.23-1.49,1.44-.51,3.11-.19,4.26.96,1.15,1.15,1.47,2.82.96,4.26-.39,1.09-2.31,4.42-1.49,5.23h0c.36,1.58,1.29,2.97,2.61,3.9h0c.44,1.07,4.25.56,5.4.62,1.53.08,2.95,1.01,3.57,2.52.62,1.51.28,3.17-.74,4.3-.77.86-3.82,3.2-3.38,4.26h0c-.27,1.6.05,3.23.92,4.6h0c0,1.15,3.71,2.15,4.75,2.64,1.38.66,2.33,2.06,2.33,3.69s-.95,3.04-2.33,3.69c-1.04.49-4.75,1.49-4.75,2.64h0c-.86,1.37-1.19,3.01-.92,4.6h0c-.44,1.07,2.61,3.41,3.38,4.26,1.02,1.13,1.37,2.8.74,4.3-.62,1.51-2.04,2.44-3.57,2.52-1.15.06-4.96-.44-5.4.62h0c-1.32.93-2.25,2.32-2.61,3.9-.81.81,1.11,4.14,1.49,5.23.51,1.44.19,3.11-.96,4.26s-2.82,1.47-4.26.96c-1.09-.39-4.42-2.31-5.23-1.49h0c-1.58.36-2.97,1.29-3.9,2.61h0c-1.06.44-.56,4.25-.62,5.4-.08,1.53-1.01,2.95-2.52,3.57-1.51.62-3.17.28-4.3-.74-.86-.77-3.2-3.82-4.26-3.38h0c-1.59-.27-3.23.05-4.6.92h0c-1.15,0-2.15,3.71-2.64,4.75-.66,1.38-2.06,2.33-3.69,2.33s-3.04-.95-3.69-2.33c-.49-1.04-1.49-4.75-2.64-4.75h0c-1.37-.86-3.01-1.19-4.6-.92h0c-1.06-.44-3.4,2.61-4.26,3.38-1.13,1.02-2.8,1.37-4.3.74-1.51-.62-2.44-2.04-2.52-3.57-.06-1.15.44-4.96-.62-5.4h0c-.93-1.32-2.32-2.25-3.9-2.61h0c-.82-.82-4.14,1.11-5.23,1.49-1.44.51-3.11.19-4.26-.96-1.15-1.15-1.47-2.82-.96-4.26.39-1.09,2.31-4.42,1.49-5.23h0c-.36-1.58-1.29-2.97-2.61-3.9h0c-.44-1.07-4.25-.56-5.4-.62-1.53-.08-2.95-1.01-3.57-2.52-.62-1.51-.28-3.17.74-4.3.77-.86,3.82-3.2,3.38-4.26h0c.27-1.6-.05-3.23-.92-4.6h0c0-1.15-3.71-2.15-4.75-2.64-1.38-.66-2.33-2.06-2.33-3.69s.95-3.04,2.33-3.69Z"/>
  </g>
</svg>