<?xml version="1.0" encoding="UTF-8"?>
<svg id="Layer_1" data-name="Layer 1" xmlns="http://www.w3.org/2000/svg" viewBox="0 0 1200 280">
  <defs>
    <style>
      .cls-1 {
        fill: #feffef;
        stroke-width: 0px;
      }
    </style>
  </defs>
  <g>
    <path class="cls-1" d="M683.2,119.33c0,13.98,31.68,14.12,31.68,32.85,0,13.06-11.66,20.56-25.64,20.56-10.45,0-19.73-4.59-22.4-10.64-.92-1.89-1.35-4.26-1.35-5.85,0-5.32,1.45-8.42,3.34-8.42,1.6,0,2.32,2.18,3.19,4.5,3,8.42,9.33,14.03,18.86,14.03,8.9,0,13.4-5.32,13.4-10.69,0-14.9-30.81-13.93-30.81-32.89,0-11.9,10.93-18.87,22.25-18.87,8.18,0,11.85,2.8,14.95,2.8,1.84,0,2.47-.87,3.97-.87,2.76,0,1.94,2.85,2.52,8.66.39,4.5.82,6.58.82,7.55,0,1.5-.97,2.76-2.42,2.76-1.84,0-2.47-2.13-3.92-4.6-4.26-7.74-10.21-10.79-15.96-10.79-7.3,0-12.48,4.4-12.48,9.92Z"/>
    <path class="cls-1" d="M773.51,105.11c2.03,0,3.05.63,3.05,3.24,0,2.23-.39,11.37-.48,15.04-.1,1.98-1.26,2.42-2.08,2.42-1.21,0-1.98-.92-2.32-2.23-1.74-9.87-3.19-12.38-10.01-12.38-2.27,0-3.1.63-3.87,2.13-1.93,3.97-7.26,46.19-7.26,49.63,0,4.06,4.64,3.68,4.64,6.19,0,1.16-.92,2.23-3.29,2.23-1.79,0-5.61-.24-7.83-.24-2.42,0-6.34.24-8.13.24-1.93,0-2.71-.82-2.71-1.74,0-3.14,5.37-2.37,6.58-6.68,1.02-3.68,6.77-44.02,6.77-48.28,0-2.08-1.11-3.48-3.44-3.48-6.87,0-9.05,2.52-13.5,12.38-.72,1.31-1.55,2.23-2.8,2.23-.73,0-1.65-.34-1.65-1.89,0-2.27,1.11-5.18,3.39-15,.63-3.05,1.89-3.82,4.21-3.82,4.16,0,9.29.24,20.27.24s16.21-.24,20.46-.24Z"/>
    <path class="cls-1" d="M831.17,146.56c-2.51,18.24-12.53,26.22-27.38,26.22-11.51,0-20.46-6.48-20.46-21.48,0-6.19,4.64-34.64,4.64-36.66,0-4.79-3.77-4.6-3.77-7.11,0-1.11.48-2.42,3.1-2.42,1.79,0,4.89.24,7.21.24s5.32-.24,7.02-.24c1.93,0,2.56.87,2.56,1.84,0,3.39-4.59,2.32-5.9,8.27-.44,2.13-4.69,28.3-4.69,33.71,0,11.9,5.9,15.72,13.16,15.72,6.68,0,10.98-3.29,13.64-7.5,2.8-4.4,3.72-11.41,5.17-20.51,1.16-7.35,2.66-18.43,2.66-21.86,0-4.59-4.3-5.27-4.3-7.4,0-1.5.97-2.27,3.1-2.27s5.13.24,6.53.24c1.69,0,3.72-.24,5.81-.24,1.6,0,2.27.77,2.27,1.79,0,3.19-4.45,2.47-5.61,7.6-.39,1.89-2.08,12.19-3.1,19.88-.58,4.69-1.11,8.56-1.65,12.19Z"/>
    <path class="cls-1" d="M852.89,105.11c1.79,0,4.89.24,7.11.24,5.13,0,8.66-.29,13.59-.29,15.91,0,30.91,7.83,30.91,27.86,0,23.12-14.8,38.5-35.94,38.5-5.42,0-11.51-.34-17.75-.34-2.42,0-5.47.24-7.3.24-1.98,0-2.76-.77-2.76-1.69,0-3.19,4.74-2.08,5.81-6.53,1.35-6.58,6.96-44.36,6.96-48.47,0-4.79-3.72-4.6-3.72-7.11,0-1.11.48-2.42,3.1-2.42ZM857.2,162.57c0,2.23,1.01,3,10.45,3,17.22,0,25.68-15.48,25.68-32.55,0-12.33-5.9-22.11-21.38-22.11-7.01,0-7.69,1.31-8.27,4.31-1.26,6.19-6.48,44.07-6.48,47.36Z"/>
    <path class="cls-1" d="M935.64,106.94c0,3.39-4.5,2.13-5.85,8.27-1.16,6.14-6.53,44.65-6.53,47.89,0,4.06,3.97,3.68,3.97,6,0,1.21-.97,2.27-3.34,2.27-1.79,0-4.69-.24-7.01-.24s-5.47.24-7.3.24c-1.98,0-2.76-.82-2.76-1.74,0-3.05,4.74-2.08,5.81-6.53,1.35-6.58,6.96-44.36,6.96-48.47,0-4.79-3.72-4.6-3.72-7.11,0-1.11.48-2.42,3.1-2.42,1.79,0,4.89.24,7.11.24,2.37,0,5.42-.24,7.11-.24,1.93,0,2.47.87,2.47,1.84Z"/>
    <path class="cls-1" d="M973.2,103.9c14.76,0,26.8,10.5,26.8,29.65,0,25.54-16.69,39.03-34.68,39.03-16.88,0-27.04-11.22-27.04-28.05,0-23.12,15.96-40.63,34.92-40.63ZM949.89,144.72c0,12.14,5.42,21.62,16.21,21.62,11.51,0,22.73-12.87,22.73-33.23,0-12.48-4.84-23.41-15.96-23.41s-22.98,14.9-22.98,35.02Z"/>
  </g>
  <g>
    <g>
      <path class="cls-1" d="M233.83,106.66c-17.32,0-33.83,16.89-33.83,38.97,0,15.34,9.71,25.61,24.68,25.61,17.26,0,33.4-13.67,33.4-38.1,0-16.89-10.82-26.47-24.25-26.47ZM225.92,163.63c-7.98,0-12.99-6.93-12.99-18.12,0-17.19,10.21-32.1,20.35-32.1,7.36,0,12.31,7.92,12.31,20.04,0,18.18-9.34,30.18-19.67,30.18Z"/>
      <path class="cls-1" d="M321.72,158.19c-1.67,0-2.54,3.46-4.95,3.46-1.42,0-2.54-1.61-2.54-4.45,0-12.87,11.44-71.5,11.44-75.4,0-1.86-1.05-2.72-2.72-2.72s-5.69.8-10.76,3.03c-4.14,1.79-6.12,3.22-6.12,5.32,0,1.05,1.11,1.79,2.17,2.29,2.23.8,3.28,1.98,3.28,4.27,0,1.73-1.92,13.36-2.47,16.08-.43,2.66-1.11,4.7-1.73,4.7-.74,0-4.08-8.1-14.72-8.1-15.53,0-31.3,16.76-31.3,41.44,0,12.93,6.87,23.13,19.79,23.13,8.47,0,14.35-4.64,18.25-8.72,1.3-1.36,1.67-2.1,2.16-2.1.43,0,.62.8.74,1.61.37,5.2,4.02,8.84,8.66,8.84,6.99,0,11.75-6.06,11.75-11.01,0-1.42-.62-1.67-.93-1.67ZM286.21,162.7c-8.35,0-12.19-7.24-12.19-17.07,0-18.62,10.82-31.67,20.78-31.67,6.06,0,10.95,5.13,10.95,16.02,0,19.86-9.34,32.72-19.54,32.72Z"/>
      <path class="cls-1" d="M387.21,79.08c-1.61,0-5.69.8-10.76,3.03-4.14,1.79-6.12,3.22-6.12,5.32,0,1.05,1.11,1.79,2.17,2.29,2.23.8,3.28,1.98,3.28,4.27,0,1.73-1.92,13.36-2.47,16.08-.43,2.66-1.11,4.7-1.73,4.7-.74,0-4.08-8.1-14.72-8.1-15.53,0-31.3,16.76-31.3,41.44,0,12.93,6.87,23.13,19.79,23.13,8.47,0,14.35-4.64,18.25-8.72,1.3-1.36,1.67-2.1,2.16-2.1.43,0,.62.8.74,1.61.37,5.2,4.02,8.84,8.66,8.84,6.99,0,11.75-6.06,11.75-11.01,0-1.42-.62-1.67-.93-1.67-1.67,0-2.54,3.46-4.95,3.46-1.42,0-2.54-1.61-2.54-4.45,0-12.87,11.44-71.5,11.44-75.4,0-1.86-1.05-2.72-2.72-2.72ZM350.47,162.7c-8.35,0-12.19-7.24-12.19-17.07,0-18.62,10.82-31.67,20.78-31.67,6.06,0,10.95,5.13,10.95,16.02,0,19.86-9.34,32.72-19.54,32.72Z"/>
      <path class="cls-1" d="M444.5,117.06c-2.78-3.34-6.12-5.95-10.02-7.82-3.9-1.88-8.17-2.81-12.83-2.81-4.25,0-8.25.85-12,2.54-3.75,1.69-7.04,4.03-9.86,7.02-2.82,2.99-5.04,6.45-6.65,10.39-1.61,3.94-2.41,8.17-2.41,12.71,0,5.98,1.39,11.43,4.17,16.36,2.78,4.93,6.51,8.85,11.2,11.78,4.68,2.93,9.86,4.39,15.55,4.39,6.18,0,11.77-1.74,16.76-5.23,4.99-3.48,8.72-7.97,11.19-13.45l-10.58-2.47c-1.86,3.34-4.29,5.97-7.3,7.89-3.01,1.92-6.37,2.88-10.08,2.88-3.46-.04-6.61-.87-9.43-2.47-2.82-1.61-5.14-3.78-6.96-6.52-1.82-2.74-2.97-5.86-3.46-9.37h50.47c.37-5.03-.13-9.75-1.51-14.16-1.38-4.41-3.46-8.29-6.25-11.63ZM401.49,134.69c.45-3.55,1.62-6.75,3.49-9.62,1.88-2.87,4.26-5.14,7.14-6.83,2.88-1.69,6.06-2.54,9.52-2.54s6.66.87,9.59,2.6c2.93,1.73,5.34,4.03,7.24,6.9,1.9,2.87,3.01,6.03,3.34,9.49h-40.32Z"/>
      <path class="cls-1" d="M511.2,118.73c-2.27-3.63-5.24-6.59-8.91-8.87-3.67-2.29-7.94-3.43-12.8-3.43-4.45,0-8.62.83-12.49,2.5-3.87,1.67-7.29,3.98-10.23,6.93-2.95,2.95-5.25,6.38-6.9,10.3-1.65,3.92-2.47,8.08-2.47,12.49s.85,8.84,2.54,12.8c1.69,3.96,4.05,7.45,7.08,10.48,3.03,3.03,6.53,5.4,10.48,7.11,3.96,1.71,8.2,2.57,12.74,2.57s8.75-1.11,12.15-3.34c3.4-2.23,6.07-5.13,8.01-8.72l.43,10.45h10.39v-61.84h-10.39l.37,10.58ZM507.58,150.4c-1.63,3.42-3.94,6.13-6.93,8.13-2.99,2-6.53,3-10.61,3s-7.61-1-10.95-3c-3.34-2-6.02-4.7-8.04-8.1-2.02-3.4-3.03-7.18-3.03-11.35s.98-7.95,2.94-11.35c1.96-3.4,4.61-6.11,7.95-8.13,3.34-2.02,7.05-3.03,11.13-3.03s7.55,1,10.54,3c2.99,2,5.31,4.7,6.96,8.1,1.65,3.4,2.47,7.21,2.47,11.41s-.81,7.9-2.44,11.32Z"/>
      <path class="cls-1" d="M547.47,116.13c2.08-.7,4.32-1.01,6.71-.93,1.94.04,3.84.39,5.69,1.05,1.86.66,3.5,1.56,4.95,2.69,1.44,1.13,2.51,2.44,3.22,3.93l8.35-4.89c-2.02-3.67-5.09-6.58-9.22-8.72-4.12-2.14-8.68-3.22-13.67-3.22-3.96,0-7.67.76-11.13,2.29-3.46,1.53-6.26,3.69-8.38,6.49-2.12,2.8-3.19,6.12-3.19,9.96,0,3.63.96,6.61,2.88,8.94,1.92,2.33,4.55,4.25,7.88,5.75,3.34,1.51,7.13,2.79,11.38,3.87,2.14.62,4.26,1.27,6.34,1.95,2.08.68,3.81,1.61,5.2,2.78,1.38,1.18,2.07,2.79,2.07,4.86,0,1.94-.63,3.6-1.89,4.98-1.26,1.38-2.88,2.42-4.86,3.12-1.98.7-4.1,1.05-6.37,1.05-2.14,0-4.27-.37-6.37-1.11-2.1-.74-3.96-1.73-5.57-2.97-1.61-1.24-2.72-2.56-3.34-3.96l-8.91,3.83c1.07,2.56,2.79,4.81,5.16,6.77,2.37,1.96,5.13,3.5,8.29,4.64,3.15,1.13,6.4,1.76,9.74,1.89,4.12.16,7.99-.5,11.6-1.98,3.61-1.48,6.54-3.64,8.81-6.46,2.27-2.82,3.4-6.13,3.4-9.93.04-3.46-.94-6.37-2.94-8.72-2-2.35-4.63-4.31-7.88-5.88-3.26-1.57-6.76-2.95-10.51-4.14-2.56-.82-4.92-1.56-7.08-2.2-2.16-.64-3.92-1.49-5.26-2.57-1.34-1.07-2.01-2.64-2.01-4.7s.63-3.87,1.88-5.29c1.26-1.42,2.93-2.48,5.01-3.18Z"/>
      <polygon class="cls-1" points="623.08 108.16 605.63 155.72 589.62 108.16 578.24 108.16 600.44 170 589.25 200.92 600.26 200.92 634.08 108.16 623.08 108.16"/>
    </g>
    <g>
      <g>
        <path class="cls-1" d="M233.83,106.66c-17.32,0-33.83,16.89-33.83,38.97,0,15.34,9.71,25.61,24.68,25.61,17.26,0,33.4-13.67,33.4-38.1,0-16.89-10.82-26.47-24.25-26.47ZM225.92,163.63c-7.98,0-12.99-6.93-12.99-18.12,0-17.19,10.21-32.1,20.35-32.1,7.36,0,12.31,7.92,12.31,20.04,0,18.18-9.34,30.18-19.67,30.18Z"/>
        <path class="cls-1" d="M321.72,158.19c-1.67,0-2.54,3.46-4.95,3.46-1.42,0-2.54-1.61-2.54-4.45,0-12.87,11.44-71.5,11.44-75.4,0-1.86-1.05-2.72-2.72-2.72s-5.69.8-10.76,3.03c-4.14,1.79-6.12,3.22-6.12,5.32,0,1.05,1.11,1.79,2.17,2.29,2.23.8,3.28,1.98,3.28,4.27,0,1.73-1.92,13.36-2.47,16.08-.43,2.66-1.11,4.7-1.73,4.7-.74,0-4.08-8.1-14.72-8.1-15.53,0-31.3,16.76-31.3,41.44,0,12.93,6.87,23.13,19.79,23.13,8.47,0,14.35-4.64,18.25-8.72,1.3-1.36,1.67-2.1,2.16-2.1.43,0,.62.8.74,1.61.37,5.2,4.02,8.84,8.66,8.84,6.99,0,11.75-6.06,11.75-11.01,0-1.42-.62-1.67-.93-1.67ZM286.21,162.7c-8.35,0-12.19-7.24-12.19-17.07,0-18.62,10.82-31.67,20.78-31.67,6.06,0,10.95,5.13,10.95,16.02,0,19.86-9.34,32.72-19.54,32.72Z"/>
        <path class="cls-1" d="M387.21,79.08c-1.61,0-5.69.8-10.76,3.03-4.14,1.79-6.12,3.22-6.12,5.32,0,1.05,1.11,1.79,2.17,2.29,2.23.8,3.28,1.98,3.28,4.27,0,1.73-1.92,13.36-2.47,16.08-.43,2.66-1.11,4.7-1.73,4.7-.74,0-4.08-8.1-14.72-8.1-15.53,0-31.3,16.76-31.3,41.44,0,12.93,6.87,23.13,19.79,23.13,8.47,0,14.35-4.64,18.25-8.72,1.3-1.36,1.67-2.1,2.16-2.1.43,0,.62.8.74,1.61.37,5.2,4.02,8.84,8.66,8.84,6.99,0,11.75-6.06,11.75-11.01,0-1.42-.62-1.67-.93-1.67-1.67,0-2.54,3.46-4.95,3.46-1.42,0-2.54-1.61-2.54-4.45,0-12.87,11.44-71.5,11.44-75.4,0-1.86-1.05-2.72-2.72-2.72ZM350.47,162.7c-8.35,0-12.19-7.24-12.19-17.07,0-18.62,10.82-31.67,20.78-31.67,6.06,0,10.95,5.13,10.95,16.02,0,19.86-9.34,32.72-19.54,32.72Z"/>
        <path class="cls-1" d="M444.5,117.06c-2.78-3.34-6.12-5.95-10.02-7.82-3.9-1.88-8.17-2.81-12.83-2.81-4.25,0-8.25.85-12,2.54-3.75,1.69-7.04,4.03-9.86,7.02-2.82,2.99-5.04,6.45-6.65,10.39-1.61,3.94-2.41,8.17-2.41,12.71,0,5.98,1.39,11.43,4.17,16.36,2.78,4.93,6.51,8.85,11.2,11.78,4.68,2.93,9.86,4.39,15.55,4.39,6.18,0,11.77-1.74,16.76-5.23,4.99-3.48,8.72-7.97,11.19-13.45l-10.58-2.47c-1.86,3.34-4.29,5.97-7.3,7.89-3.01,1.92-6.37,2.88-10.08,2.88-3.46-.04-6.61-.87-9.43-2.47-2.82-1.61-5.14-3.78-6.96-6.52-1.82-2.74-2.97-5.86-3.46-9.37h50.47c.37-5.03-.13-9.75-1.51-14.16-1.38-4.41-3.46-8.29-6.25-11.63ZM401.49,134.69c.45-3.55,1.62-6.75,3.49-9.62,1.88-2.87,4.26-5.14,7.14-6.83,2.88-1.69,6.06-2.54,9.52-2.54s6.66.87,9.59,2.6c2.93,1.73,5.34,4.03,7.24,6.9,1.9,2.87,3.01,6.03,3.34,9.49h-40.32Z"/>
        <path class="cls-1" d="M511.2,118.73c-2.27-3.63-5.24-6.59-8.91-8.87-3.67-2.29-7.94-3.43-12.8-3.43-4.45,0-8.62.83-12.49,2.5-3.87,1.67-7.29,3.98-10.23,6.93-2.95,2.95-5.25,6.38-6.9,10.3-1.65,3.92-2.47,8.08-2.47,12.49s.85,8.84,2.54,12.8c1.69,3.96,4.05,7.45,7.08,10.48,3.03,3.03,6.53,5.4,10.48,7.11,3.96,1.71,8.2,2.57,12.74,2.57s8.75-1.11,12.15-3.34c3.4-2.23,6.07-5.13,8.01-8.72l.43,10.45h10.39v-61.84h-10.39l.37,10.58ZM507.58,150.4c-1.63,3.42-3.94,6.13-6.93,8.13-2.99,2-6.53,3-10.61,3s-7.61-1-10.95-3c-3.34-2-6.02-4.7-8.04-8.1-2.02-3.4-3.03-7.18-3.03-11.35s.98-7.95,2.94-11.35c1.96-3.4,4.61-6.11,7.95-8.13,3.34-2.02,7.05-3.03,11.13-3.03s7.55,1,10.54,3c2.99,2,5.31,4.7,6.96,8.1,1.65,3.4,2.47,7.21,2.47,11.41s-.81,7.9-2.44,11.32Z"/>
        <path class="cls-1" d="M547.47,116.13c2.08-.7,4.32-1.01,6.71-.93,1.94.04,3.84.39,5.69,1.05,1.86.66,3.5,1.56,4.95,2.69,1.44,1.13,2.51,2.44,3.22,3.93l8.35-4.89c-2.02-3.67-5.09-6.58-9.22-8.72-4.12-2.14-8.68-3.22-13.67-3.22-3.96,0-7.67.76-11.13,2.29-3.46,1.53-6.26,3.69-8.38,6.49-2.12,2.8-3.19,6.12-3.19,9.96,0,3.63.96,6.61,2.88,8.94,1.92,2.33,4.55,4.25,7.88,5.75,3.34,1.51,7.13,2.79,11.38,3.87,2.14.62,4.26,1.27,6.34,1.95,2.08.68,3.81,1.61,5.2,2.78,1.38,1.18,2.07,2.79,2.07,4.86,0,1.94-.63,3.6-1.89,4.98-1.26,1.38-2.88,2.42-4.86,3.12-1.98.7-4.1,1.05-6.37,1.05-2.14,0-4.27-.37-6.37-1.11-2.1-.74-3.96-1.73-5.57-2.97-1.61-1.24-2.72-2.56-3.34-3.96l-8.91,3.83c1.07,2.56,2.79,4.81,5.16,6.77,2.37,1.96,5.13,3.5,8.29,4.64,3.15,1.13,6.4,1.76,9.74,1.89,4.12.16,7.99-.5,11.6-1.98,3.61-1.48,6.54-3.64,8.81-6.46,2.27-2.82,3.4-6.13,3.4-9.93.04-3.46-.94-6.37-2.94-8.72-2-2.35-4.63-4.31-7.88-5.88-3.26-1.57-6.76-2.95-10.51-4.14-2.56-.82-4.92-1.56-7.08-2.2-2.16-.64-3.92-1.49-5.26-2.57-1.34-1.07-2.01-2.64-2.01-4.7s.63-3.87,1.88-5.29c1.26-1.42,2.93-2.48,5.01-3.18Z"/>
        <polygon class="cls-1" points="623.08 108.16 605.63 155.72 589.62 108.16 578.24 108.16 600.44 170 589.25 200.92 600.26 200.92 634.08 108.16 623.08 108.16"/>
      </g>
      <g>
        <polygon class="cls-1" points="622.04 163.11 624.17 163.11 624.17 168.91 625.26 168.91 625.26 163.11 627.38 163.11 627.38 162.02 622.04 162.02 622.04 163.11"/>
        <polygon class="cls-1" points="634.66 162.02 633.72 162.02 631.92 166.75 630.13 162.02 629.18 162.02 627.84 168.91 628.95 168.91 629.84 164.32 631.54 168.84 632.29 168.84 634 164.32 634.89 168.91 636 168.91 634.66 162.02"/>
      </g>
    </g>
  </g>
</svg>