<?xml version="1.0" encoding="UTF-8"?>
<svg id="Layer_1" data-name="Layer 1" xmlns="http://www.w3.org/2000/svg" viewBox="0 0 720 240">
  <defs>
    <style>
      .cls-1 {
        fill: #feffef;
        stroke-width: 0px;
      }
    </style>
  </defs>
  <g>
    <path class="cls-1" d="m140.45,80.08c-20.74,0-40.51,20.22-40.51,46.66,0,18.37,11.63,30.66,29.55,30.66,20.66,0,40-16.37,40-45.62,0-20.22-12.96-31.7-29.03-31.7Zm-9.48,68.21c-9.55,0-15.55-8.29-15.55-21.7,0-20.59,12.22-38.44,24.37-38.44,8.81,0,14.74,9.48,14.74,24,0,21.77-11.18,36.14-23.55,36.14Z"/>
    <path class="cls-1" d="m245.68,141.78c-2,0-3.04,4.15-5.92,4.15-1.7,0-3.04-1.93-3.04-5.33,0-15.41,13.7-85.62,13.7-90.28,0-2.22-1.26-3.26-3.26-3.26s-6.81.96-12.89,3.63c-4.96,2.15-7.33,3.85-7.33,6.37,0,1.26,1.33,2.15,2.59,2.74,2.67.96,3.92,2.37,3.92,5.11,0,2.07-2.3,16-2.96,19.26-.52,3.18-1.33,5.63-2.08,5.63-.89,0-4.89-9.7-17.63-9.7-18.59,0-37.48,20.07-37.48,49.62,0,15.48,8.22,27.7,23.7,27.7,10.15,0,17.18-5.55,21.85-10.44,1.56-1.63,2-2.52,2.59-2.52.52,0,.74.96.89,1.93.44,6.22,4.81,10.59,10.37,10.59,8.37,0,14.07-7.26,14.07-13.18,0-1.7-.74-2-1.11-2Zm-42.51,5.41c-10,0-14.59-8.67-14.59-20.44,0-22.29,12.96-37.92,24.88-37.92,7.26,0,13.11,6.15,13.11,19.18,0,23.78-11.18,39.18-23.4,39.18Z"/>
    <path class="cls-1" d="m324.11,47.05c-1.93,0-6.81.96-12.89,3.63-4.96,2.15-7.33,3.85-7.33,6.37,0,1.26,1.33,2.15,2.59,2.74,2.67.96,3.92,2.37,3.92,5.11,0,2.07-2.3,16-2.96,19.26-.52,3.18-1.33,5.63-2.08,5.63-.89,0-4.89-9.7-17.63-9.7-18.59,0-37.48,20.07-37.48,49.62,0,15.48,8.22,27.7,23.7,27.7,10.15,0,17.18-5.55,21.85-10.44,1.56-1.63,2-2.52,2.59-2.52.52,0,.74.96.89,1.93.44,6.22,4.81,10.59,10.37,10.59,8.37,0,14.07-7.26,14.07-13.18,0-1.7-.74-2-1.11-2-2,0-3.04,4.15-5.92,4.15-1.7,0-3.04-1.93-3.04-5.33,0-15.41,13.7-85.62,13.7-90.28,0-2.22-1.26-3.26-3.26-3.26Zm-43.99,100.14c-10,0-14.59-8.67-14.59-20.44,0-22.29,12.96-37.92,24.88-37.92,7.26,0,13.11,6.15,13.11,19.18,0,23.78-11.18,39.18-23.4,39.18Z"/>
    <path class="cls-1" d="m392.7,92.53c-3.33-4-7.33-7.12-12-9.37-4.67-2.25-9.79-3.37-15.37-3.37-5.09,0-9.87,1.01-14.37,3.04-4.49,2.03-8.43,4.83-11.81,8.41-3.38,3.58-6.04,7.73-7.96,12.44-1.93,4.72-2.89,9.79-2.89,15.22,0,7.16,1.67,13.69,5,19.59,3.33,5.9,7.8,10.6,13.41,14.11,5.6,3.5,11.81,5.26,18.62,5.26,7.4,0,14.09-2.08,20.07-6.26,5.97-4.17,10.44-9.54,13.4-16.11l-12.66-2.96c-2.22,4-5.13,7.15-8.74,9.44-3.6,2.3-7.63,3.44-12.07,3.44-4.15-.05-7.91-1.04-11.29-2.96-3.38-1.93-6.16-4.53-8.33-7.81-2.17-3.28-3.55-7.02-4.15-11.22h60.43c.44-6.02-.16-11.67-1.81-16.96-1.65-5.28-4.15-9.92-7.48-13.92Zm-51.5,21.11c.54-4.25,1.94-8.08,4.18-11.51,2.25-3.43,5.1-6.16,8.55-8.18,3.45-2.02,7.26-3.04,11.4-3.04s7.97,1.04,11.48,3.11c3.51,2.07,6.39,4.83,8.67,8.26,2.27,3.43,3.6,7.22,4,11.37h-48.28Z"/>
    <path class="cls-1" d="m472.57,94.53c-2.72-4.34-6.27-7.89-10.66-10.63-4.4-2.74-9.5-4.11-15.33-4.11-5.33,0-10.32,1-14.96,3-4.64,2-8.73,4.76-12.26,8.29-3.53,3.53-6.28,7.64-8.26,12.33-1.98,4.69-2.96,9.68-2.96,14.96s1.01,10.59,3.04,15.33,4.85,8.92,8.48,12.55c3.63,3.63,7.81,6.47,12.55,8.52,4.74,2.05,9.82,3.07,15.25,3.07s10.48-1.33,14.55-4c4.07-2.67,7.27-6.15,9.59-10.44l.52,12.52h12.44v-74.05h-12.44l.44,12.66Zm-4.33,37.92c-1.95,4.1-4.71,7.34-8.29,9.74-3.58,2.4-7.81,3.59-12.7,3.59s-9.11-1.2-13.11-3.59c-4-2.39-7.21-5.63-9.63-9.7-2.42-4.07-3.63-8.6-3.63-13.59s1.17-9.52,3.52-13.59c2.34-4.07,5.52-7.32,9.52-9.74,4-2.42,8.44-3.63,13.33-3.63s9.05,1.2,12.63,3.59c3.58,2.4,6.36,5.63,8.33,9.7,1.98,4.07,2.96,8.63,2.96,13.66s-.97,9.45-2.92,13.55Z"/>
    <path class="cls-1" d="m516,91.42c2.49-.84,5.17-1.21,8.03-1.11,2.32.05,4.59.47,6.81,1.26,2.22.79,4.19,1.86,5.92,3.22,1.73,1.36,3.01,2.93,3.85,4.7l10-5.85c-2.42-4.39-6.1-7.87-11.03-10.44-4.94-2.57-10.39-3.85-16.37-3.85-4.74,0-9.18.91-13.33,2.74-4.15,1.83-7.49,4.42-10.03,7.78-2.54,3.36-3.81,7.33-3.81,11.92,0,4.35,1.15,7.91,3.44,10.7,2.29,2.79,5.44,5.08,9.44,6.89,4,1.8,8.54,3.34,13.63,4.63,2.57.74,5.1,1.52,7.59,2.33,2.49.81,4.57,1.93,6.22,3.33s2.48,3.35,2.48,5.81c0,2.32-.75,4.31-2.26,5.96-1.51,1.66-3.44,2.9-5.81,3.74-2.37.84-4.91,1.26-7.63,1.26-2.57,0-5.11-.44-7.63-1.33-2.52-.89-4.74-2.07-6.66-3.55-1.93-1.48-3.26-3.06-4-4.74l-10.66,4.59c1.28,3.06,3.34,5.76,6.18,8.11,2.84,2.35,6.15,4.2,9.92,5.55s7.66,2.11,11.66,2.26c4.94.2,9.57-.59,13.89-2.37,4.32-1.78,7.84-4.36,10.55-7.74,2.72-3.38,4.07-7.34,4.07-11.89.05-4.15-1.12-7.63-3.52-10.44-2.39-2.81-5.54-5.16-9.44-7.04-3.9-1.88-8.1-3.53-12.59-4.96-3.06-.99-5.89-1.86-8.48-2.63-2.59-.76-4.69-1.79-6.29-3.07-1.6-1.28-2.41-3.16-2.41-5.63s.75-4.63,2.26-6.33c1.51-1.7,3.51-2.97,6-3.81Z"/>
    <polygon class="cls-1" points="606.53 81.87 585.65 138.82 566.47 81.87 552.84 81.87 579.43 155.92 566.02 192.95 579.21 192.95 619.71 81.87 606.53 81.87"/>
  </g>
  <g>
    <g>
      <path class="cls-1" d="m140.45,80.08c-20.74,0-40.51,20.22-40.51,46.66,0,18.37,11.63,30.66,29.55,30.66,20.66,0,40-16.37,40-45.62,0-20.22-12.96-31.7-29.03-31.7Zm-9.48,68.21c-9.55,0-15.55-8.29-15.55-21.7,0-20.59,12.22-38.44,24.37-38.44,8.81,0,14.74,9.48,14.74,24,0,21.77-11.18,36.14-23.55,36.14Z"/>
      <path class="cls-1" d="m245.68,141.78c-2,0-3.04,4.15-5.92,4.15-1.7,0-3.04-1.93-3.04-5.33,0-15.41,13.7-85.62,13.7-90.28,0-2.22-1.26-3.26-3.26-3.26s-6.81.96-12.89,3.63c-4.96,2.15-7.33,3.85-7.33,6.37,0,1.26,1.33,2.15,2.59,2.74,2.67.96,3.92,2.37,3.92,5.11,0,2.07-2.3,16-2.96,19.26-.52,3.18-1.33,5.63-2.08,5.63-.89,0-4.89-9.7-17.63-9.7-18.59,0-37.48,20.07-37.48,49.62,0,15.48,8.22,27.7,23.7,27.7,10.15,0,17.18-5.55,21.85-10.44,1.56-1.63,2-2.52,2.59-2.52.52,0,.74.96.89,1.93.44,6.22,4.81,10.59,10.37,10.59,8.37,0,14.07-7.26,14.07-13.18,0-1.7-.74-2-1.11-2Zm-42.51,5.41c-10,0-14.59-8.67-14.59-20.44,0-22.29,12.96-37.92,24.88-37.92,7.26,0,13.11,6.15,13.11,19.18,0,23.78-11.18,39.18-23.4,39.18Z"/>
      <path class="cls-1" d="m324.11,47.05c-1.93,0-6.81.96-12.89,3.63-4.96,2.15-7.33,3.85-7.33,6.37,0,1.26,1.33,2.15,2.59,2.74,2.67.96,3.92,2.37,3.92,5.11,0,2.07-2.3,16-2.96,19.26-.52,3.18-1.33,5.63-2.08,5.63-.89,0-4.89-9.7-17.63-9.7-18.59,0-37.48,20.07-37.48,49.62,0,15.48,8.22,27.7,23.7,27.7,10.15,0,17.18-5.55,21.85-10.44,1.56-1.63,2-2.52,2.59-2.52.52,0,.74.96.89,1.93.44,6.22,4.81,10.59,10.37,10.59,8.37,0,14.07-7.26,14.07-13.18,0-1.7-.74-2-1.11-2-2,0-3.04,4.15-5.92,4.15-1.7,0-3.04-1.93-3.04-5.33,0-15.41,13.7-85.62,13.7-90.28,0-2.22-1.26-3.26-3.26-3.26Zm-43.99,100.14c-10,0-14.59-8.67-14.59-20.44,0-22.29,12.96-37.92,24.88-37.92,7.26,0,13.11,6.15,13.11,19.18,0,23.78-11.18,39.18-23.4,39.18Z"/>
      <path class="cls-1" d="m392.7,92.53c-3.33-4-7.33-7.12-12-9.37-4.67-2.25-9.79-3.37-15.37-3.37-5.09,0-9.87,1.01-14.37,3.04-4.49,2.03-8.43,4.83-11.81,8.41-3.38,3.58-6.04,7.73-7.96,12.44-1.93,4.72-2.89,9.79-2.89,15.22,0,7.16,1.67,13.69,5,19.59,3.33,5.9,7.8,10.6,13.41,14.11,5.6,3.5,11.81,5.26,18.62,5.26,7.4,0,14.09-2.08,20.07-6.26,5.97-4.17,10.44-9.54,13.4-16.11l-12.66-2.96c-2.22,4-5.13,7.15-8.74,9.44-3.6,2.3-7.63,3.44-12.07,3.44-4.15-.05-7.91-1.04-11.29-2.96-3.38-1.93-6.16-4.53-8.33-7.81-2.17-3.28-3.55-7.02-4.15-11.22h60.43c.44-6.02-.16-11.67-1.81-16.96-1.65-5.28-4.15-9.92-7.48-13.92Zm-51.5,21.11c.54-4.25,1.94-8.08,4.18-11.51,2.25-3.43,5.1-6.16,8.55-8.18,3.45-2.02,7.26-3.04,11.4-3.04s7.97,1.04,11.48,3.11c3.51,2.07,6.39,4.83,8.67,8.26,2.27,3.43,3.6,7.22,4,11.37h-48.28Z"/>
      <path class="cls-1" d="m472.57,94.53c-2.72-4.34-6.27-7.89-10.66-10.63-4.4-2.74-9.5-4.11-15.33-4.11-5.33,0-10.32,1-14.96,3-4.64,2-8.73,4.76-12.26,8.29-3.53,3.53-6.28,7.64-8.26,12.33-1.98,4.69-2.96,9.68-2.96,14.96s1.01,10.59,3.04,15.33,4.85,8.92,8.48,12.55c3.63,3.63,7.81,6.47,12.55,8.52,4.74,2.05,9.82,3.07,15.25,3.07s10.48-1.33,14.55-4c4.07-2.67,7.27-6.15,9.59-10.44l.52,12.52h12.44v-74.05h-12.44l.44,12.66Zm-4.33,37.92c-1.95,4.1-4.71,7.34-8.29,9.74-3.58,2.4-7.81,3.59-12.7,3.59s-9.11-1.2-13.11-3.59c-4-2.39-7.21-5.63-9.63-9.7-2.42-4.07-3.63-8.6-3.63-13.59s1.17-9.52,3.52-13.59c2.34-4.07,5.52-7.32,9.52-9.74,4-2.42,8.44-3.63,13.33-3.63s9.05,1.2,12.63,3.59c3.58,2.4,6.36,5.63,8.33,9.7,1.98,4.07,2.96,8.63,2.96,13.66s-.97,9.45-2.92,13.55Z"/>
      <path class="cls-1" d="m516,91.42c2.49-.84,5.17-1.21,8.03-1.11,2.32.05,4.59.47,6.81,1.26,2.22.79,4.19,1.86,5.92,3.22,1.73,1.36,3.01,2.93,3.85,4.7l10-5.85c-2.42-4.39-6.1-7.87-11.03-10.44-4.94-2.57-10.39-3.85-16.37-3.85-4.74,0-9.18.91-13.33,2.74-4.15,1.83-7.49,4.42-10.03,7.78-2.54,3.36-3.81,7.33-3.81,11.92,0,4.35,1.15,7.91,3.44,10.7,2.29,2.79,5.44,5.08,9.44,6.89,4,1.8,8.54,3.34,13.63,4.63,2.57.74,5.1,1.52,7.59,2.33,2.49.81,4.57,1.93,6.22,3.33s2.48,3.35,2.48,5.81c0,2.32-.75,4.31-2.26,5.96-1.51,1.66-3.44,2.9-5.81,3.74-2.37.84-4.91,1.26-7.63,1.26-2.57,0-5.11-.44-7.63-1.33-2.52-.89-4.74-2.07-6.66-3.55-1.93-1.48-3.26-3.06-4-4.74l-10.66,4.59c1.28,3.06,3.34,5.76,6.18,8.11,2.84,2.35,6.15,4.2,9.92,5.55s7.66,2.11,11.66,2.26c4.94.2,9.57-.59,13.89-2.37,4.32-1.78,7.84-4.36,10.55-7.74,2.72-3.38,4.07-7.34,4.07-11.89.05-4.15-1.12-7.63-3.52-10.44-2.39-2.81-5.54-5.16-9.44-7.04-3.9-1.88-8.1-3.53-12.59-4.96-3.06-.99-5.89-1.86-8.48-2.63-2.59-.76-4.69-1.79-6.29-3.07-1.6-1.28-2.41-3.16-2.41-5.63s.75-4.63,2.26-6.33c1.51-1.7,3.51-2.97,6-3.81Z"/>
      <polygon class="cls-1" points="606.53 81.87 585.65 138.82 566.47 81.87 552.84 81.87 579.43 155.92 566.02 192.95 579.21 192.95 619.71 81.87 606.53 81.87"/>
    </g>
    <g>
      <polygon class="cls-1" points="605.29 147.67 607.84 147.67 607.84 154.62 609.15 154.62 609.15 147.67 611.69 147.67 611.69 146.37 605.29 146.37 605.29 147.67"/>
      <polygon class="cls-1" points="620.41 146.37 619.27 146.37 617.12 152.03 614.97 146.37 613.84 146.37 612.24 154.62 613.56 154.62 614.63 149.13 616.67 154.53 617.57 154.53 619.62 149.13 620.68 154.62 622.01 154.62 620.41 146.37"/>
    </g>
  </g>
</svg>